<svg width="91" height="24" viewBox="0 0 91 24" fill="none" xmlns="http://www.w3.org/2000/svg">
<path d="M3.36 15.912C1.76 14.312 0.96 12.312 0.96 9.912C0.96 7.512 1.76 5.512 3.36 3.912C4.976 2.296 6.992 1.488 9.408 1.488C11.04 1.488 12.52 1.896 13.848 2.712C15.192 3.512 16.208 4.592 16.896 5.952L14.136 6.984C13.656 6.12 13 5.448 12.168 4.968C11.336 4.488 10.416 4.248 9.408 4.248C7.84 4.248 6.536 4.792 5.496 5.88C4.456 6.968 3.936 8.304 3.936 9.888C3.936 11.504 4.456 12.856 5.496 13.944C6.52 15.016 7.824 15.552 9.408 15.552C10.416 15.552 11.336 15.312 12.168 14.832C13 14.352 13.656 13.68 14.136 12.816L16.896 13.848C16.208 15.208 15.192 16.296 13.848 17.112C12.52 17.912 11.04 18.312 9.408 18.312C6.976 18.312 4.96 17.512 3.36 15.912ZM21.5096 18H18.9176V7.2H21.5096V18ZM18.5816 3.768C18.5816 3.288 18.7336 2.896 19.0376 2.592C19.3576 2.272 19.7496 2.112 20.2136 2.112C20.6776 2.112 21.0696 2.272 21.3896 2.592C21.7096 2.896 21.8696 3.288 21.8696 3.768C21.8696 4.232 21.7096 4.624 21.3896 4.944C21.0696 5.248 20.6776 5.4 20.2136 5.4C19.7496 5.4 19.3576 5.248 19.0376 4.944C18.7336 4.624 18.5816 4.232 18.5816 3.768ZM22.9041 9.456V7.2H24.4401V5.088H27.0321V7.2H29.8161V9.456H27.0321V14.208C27.0321 14.592 27.1601 14.912 27.4161 15.168C27.6721 15.408 27.9841 15.528 28.3521 15.528H29.8161V18H28.1361C27.1121 18 26.2321 17.672 25.4961 17.016C24.7921 16.36 24.4401 15.552 24.4401 14.592V9.456H22.9041ZM34.3584 18.864L34.7904 17.76L30.6144 7.2H33.3024L36.0624 14.496L38.8944 7.2H41.5584L36.5424 19.728C36.0464 20.992 35.4064 21.92 34.6224 22.512C33.8384 23.104 32.8544 23.4 31.6704 23.4H31.3104V20.928H31.6704C32.9024 20.928 33.7984 20.24 34.3584 18.864Z" fill="#2E2E2E"/>
<path d="M42.7016 1.8H46.6856V14.352H54.3416V18H42.7016V1.8ZM56.7666 16.608C55.6626 15.52 55.1106 14.184 55.1106 12.6C55.1106 11.016 55.6626 9.68 56.7666 8.592C57.9026 7.504 59.2946 6.96 60.9426 6.96C62.5906 6.96 63.9746 7.504 65.0946 8.592C66.2146 9.664 66.7746 11 66.7746 12.6C66.7746 14.2 66.2146 15.536 65.0946 16.608C63.9746 17.696 62.5906 18.24 60.9426 18.24C59.2946 18.24 57.9026 17.696 56.7666 16.608ZM58.9026 12.6C58.9026 13.16 59.1026 13.648 59.5026 14.064C59.9026 14.464 60.3826 14.664 60.9426 14.664C61.5186 14.664 61.9986 14.464 62.3826 14.064C62.7826 13.664 62.9826 13.176 62.9826 12.6C62.9826 12.024 62.7826 11.536 62.3826 11.136C61.9986 10.72 61.5186 10.512 60.9426 10.512C60.3826 10.512 59.9026 10.72 59.5026 11.136C59.1026 11.536 58.9026 12.024 58.9026 12.6ZM69.1884 16.608C68.0844 15.52 67.5324 14.184 67.5324 12.6C67.5324 11.016 68.0844 9.68 69.1884 8.592C70.3244 7.504 71.7164 6.96 73.3644 6.96C75.0124 6.96 76.3964 7.504 77.5164 8.592C78.6364 9.664 79.1964 11 79.1964 12.6C79.1964 14.2 78.6364 15.536 77.5164 16.608C76.3964 17.696 75.0124 18.24 73.3644 18.24C71.7164 18.24 70.3244 17.696 69.1884 16.608ZM71.3244 12.6C71.3244 13.16 71.5244 13.648 71.9244 14.064C72.3244 14.464 72.8044 14.664 73.3644 14.664C73.9404 14.664 74.4204 14.464 74.8044 14.064C75.2044 13.664 75.4044 13.176 75.4044 12.6C75.4044 12.024 75.2044 11.536 74.8044 11.136C74.4204 10.72 73.9404 10.512 73.3644 10.512C72.8044 10.512 72.3244 10.72 71.9244 11.136C71.5244 11.536 71.3244 12.024 71.3244 12.6ZM80.2423 18V0.599999H83.8663V10.944L86.3623 7.2H90.6103L87.1543 12.408L90.9223 18H86.6263L83.8663 13.872V18H80.2423Z" fill="#1B4D4A"/>
</svg>
