<svg width="14" height="14" viewBox="0 0 14 14" fill="none" xmlns="http://www.w3.org/2000/svg">
<path d="M10.8894 6.45372L4.65926 0.223657C4.51517 0.0794465 4.32281 0 4.11771 0C3.9126 0 3.72025 0.0794465 3.57615 0.223657L3.11734 0.682352C2.81879 0.981244 2.81879 1.46703 3.11734 1.76547L8.34897 6.9971L3.11154 12.2345C2.96744 12.3787 2.88788 12.571 2.88788 12.776C2.88788 12.9812 2.96744 13.1734 3.11154 13.3178L3.57034 13.7763C3.71455 13.9206 3.9068 14 4.1119 14C4.31701 14 4.50936 13.9206 4.65346 13.7763L10.8894 7.54059C11.0339 7.39592 11.1132 7.20277 11.1128 6.99744C11.1132 6.79131 11.0339 6.59827 10.8894 6.45372Z" fill="black"/>
</svg>
