<svg width="12" height="12" viewBox="0 0 12 12" fill="none" xmlns="http://www.w3.org/2000/svg">
<path d="M3.16271 6.3912H4.4781V11.8065C4.4781 11.9134 4.56474 12 4.67165 12H6.90195C7.00887 12 7.0955 11.9134 7.0955 11.8065V6.41671H8.60765C8.70597 6.41671 8.7887 6.34293 8.79992 6.24526L9.02959 4.25164C9.0359 4.19679 9.01852 4.14186 8.98182 4.10071C8.94508 4.05952 8.89252 4.03595 8.83736 4.03595H7.09557V2.78625C7.09557 2.40952 7.29841 2.21849 7.69852 2.21849C7.75554 2.21849 8.83736 2.21849 8.83736 2.21849C8.94427 2.21849 9.0309 2.13182 9.0309 2.02494V0.194981C9.0309 0.0880645 8.94427 0.00143226 8.83736 0.00143226H7.26787C7.2568 0.000890323 7.23222 0 7.19599 0C6.92367 0 5.9771 0.053458 5.22938 0.741329C4.40092 1.5036 4.51608 2.4163 4.5436 2.57454V4.03591H3.16271C3.05579 4.03591 2.96916 4.12254 2.96916 4.22946V6.19761C2.96916 6.30453 3.05579 6.3912 3.16271 6.3912Z" fill="#A4A4A4"/>
</svg>
