<svg width="16" height="16" viewBox="0 0 16 16" fill="none" xmlns="http://www.w3.org/2000/svg">
<path d="M5.1875 4.71875C6.27087 4.71875 7.25085 5.27466 7.8125 6.04065L9.14368 4.69995C8.34753 3.66467 6.81519 2.84375 5.1875 2.84375C2.33752 2.84375 0 5.15002 0 8C0 10.85 2.33752 13.1562 5.1875 13.1562C7.55005 13.1562 9.53748 11.5719 10.1469 9.40625C10.2781 8.95618 10.3438 8.48743 10.3438 8V7.53125H5.65625V9.40588H8.14062C7.625 10.5122 6.4906 11.2812 5.1875 11.2812C3.37817 11.2812 1.875 9.80933 1.875 8C1.875 6.19067 3.37817 4.71875 5.1875 4.71875Z" fill="#A4A4A4"/>
<path d="M14.5625 5.65625H12.6875V7.0625H11.2812V8.9375H12.6875V10.3438H14.5625V8.9375H16V7.0625H14.5625V5.65625Z" fill="#A4A4A4"/>
</svg>
