<svg width="14" height="14" viewBox="0 0 14 14" fill="none" xmlns="http://www.w3.org/2000/svg">
<g clip-path="url(#clip0)">
<path d="M13.9863 4.11604C13.9535 3.37216 13.8332 2.86076 13.6609 2.41762C13.4831 1.94723 13.2096 1.5261 12.8513 1.17601C12.5012 0.820473 12.0773 0.544204 11.6124 0.369213C11.1666 0.196892 10.6579 0.0765988 9.91404 0.0438013C9.16462 0.00822609 8.9267 0 7.02594 0C5.12519 0 4.88727 0.00822609 4.14062 0.0410236C3.39675 0.0738212 2.88535 0.194221 2.44231 0.366435C1.97183 0.544204 1.55069 0.817695 1.2006 1.17601C0.845068 1.5261 0.568907 1.95001 0.393809 2.41495C0.221489 2.86076 0.101196 3.36939 0.0683983 4.11326C0.0328232 4.86269 0.0245972 5.10061 0.0245972 7.00137C0.0245972 8.90213 0.0328232 9.14005 0.0656207 9.8867C0.0984181 10.6306 0.218818 11.142 0.391138 11.5851C0.568907 12.0555 0.845068 12.4766 1.2006 12.8267C1.55069 13.1823 1.9746 13.4585 2.43954 13.6335C2.88535 13.8058 3.39397 13.9261 4.13795 13.9589C4.8845 13.9918 5.12252 14 7.02327 14C8.92403 14 9.16195 13.9918 9.9086 13.9589C10.6525 13.9261 11.1639 13.8058 11.6069 13.6335C12.5478 13.2698 13.2916 12.5259 13.6554 11.5851C13.8276 11.1393 13.948 10.6306 13.9808 9.8867C14.0136 9.14005 14.0218 8.90213 14.0218 7.00137C14.0218 5.10061 14.0191 4.86269 13.9863 4.11604ZM12.7255 9.832C12.6954 10.5157 12.5806 10.8849 12.4849 11.1311C12.2496 11.741 11.7656 12.225 11.1556 12.4603C10.9095 12.556 10.5376 12.6709 9.85657 12.7009C9.11814 12.7338 8.89668 12.7419 7.02872 12.7419C5.16076 12.7419 4.93652 12.7338 4.20077 12.7009C3.51704 12.6709 3.14783 12.556 2.90169 12.4603C2.59818 12.3481 2.32191 12.1703 2.09767 11.9379C1.86521 11.7109 1.68744 11.4374 1.57526 11.1339C1.47954 10.8877 1.3647 10.5157 1.33468 9.83478C1.30177 9.09635 1.29366 8.87478 1.29366 7.00682C1.29366 5.13885 1.30177 4.91461 1.33468 4.17896C1.3647 3.49524 1.47954 3.12602 1.57526 2.87988C1.68744 2.57626 1.86521 2.3001 2.10045 2.07575C2.32736 1.84329 2.60085 1.66552 2.90447 1.55345C3.15061 1.45773 3.5226 1.34288 4.20355 1.31276C4.94197 1.27996 5.16354 1.27173 7.03139 1.27173C8.90213 1.27173 9.12359 1.27996 9.85935 1.31276C10.5431 1.34288 10.9123 1.45773 11.1584 1.55345C11.4619 1.66552 11.7382 1.84329 11.9624 2.07575C12.1949 2.30277 12.3727 2.57626 12.4849 2.87988C12.5806 3.12602 12.6954 3.49791 12.7255 4.17896C12.7583 4.91739 12.7666 5.13885 12.7666 7.00682C12.7666 8.87478 12.7583 9.09357 12.7255 9.832Z" fill="#A4A4A4"/>
<path d="M7.02597 3.40494C5.04049 3.40494 3.42957 5.01576 3.42957 7.00134C3.42957 8.98693 5.04049 10.5977 7.02597 10.5977C9.01156 10.5977 10.6224 8.98693 10.6224 7.00134C10.6224 5.01576 9.01156 3.40494 7.02597 3.40494ZM7.02597 9.33424C5.73789 9.33424 4.69307 8.28953 4.69307 7.00134C4.69307 5.71316 5.73789 4.66844 7.02597 4.66844C8.31416 4.66844 9.35887 5.71316 9.35887 7.00134C9.35887 8.28953 8.31416 9.33424 7.02597 9.33424Z" fill="#A4A4A4"/>
<path d="M11.6042 3.26274C11.6042 3.7264 11.2283 4.10234 10.7645 4.10234C10.3009 4.10234 9.92493 3.7264 9.92493 3.26274C9.92493 2.79898 10.3009 2.42314 10.7645 2.42314C11.2283 2.42314 11.6042 2.79898 11.6042 3.26274Z" fill="#A4A4A4"/>
</g>
<defs>
<clipPath id="clip0">
<rect width="14" height="14" fill="white"/>
</clipPath>
</defs>
</svg>
