<svg width="19" height="13" viewBox="0 0 19 13" fill="none" xmlns="http://www.w3.org/2000/svg">
<g clip-path="url(#clip0)">
<path d="M17.9954 0.240723H0.782407C0.350517 0.240723 0 0.59124 0 1.02313V11.9768C0 12.4087 0.350517 12.7592 0.782407 12.7592H17.9954C18.4273 12.7592 18.7778 12.4087 18.7778 11.9768V1.02313C18.7778 0.59124 18.4273 0.240723 17.9954 0.240723ZM17.213 11.1944H1.56481V1.80554H17.213V11.1944Z" fill="#747474"/>
<path d="M3.91262 7.28241H4.69502C5.12691 7.28241 5.47743 6.93189 5.47743 6.5C5.47743 6.06811 5.12691 5.71759 4.69502 5.71759H3.91262C3.48073 5.71759 3.13021 6.06811 3.13021 6.5C3.13021 6.93189 3.48073 7.28241 3.91262 7.28241Z" fill="#747474"/>
<path d="M14.0828 7.28241H14.8652C15.2971 7.28241 15.6476 6.93189 15.6476 6.5C15.6476 6.06811 15.2971 5.71759 14.8652 5.71759H14.0828C13.6509 5.71759 13.3003 6.06811 13.3003 6.5C13.3003 6.93189 13.6509 7.28241 14.0828 7.28241Z" fill="#747474"/>
<path d="M9.38831 9.62962C11.114 9.62962 12.5179 8.22564 12.5179 6.49999C12.5179 4.77434 11.114 3.37036 9.38831 3.37036C7.66266 3.37036 6.25868 4.77434 6.25868 6.49999C6.25868 8.22564 7.66266 9.62962 9.38831 9.62962ZM9.38831 4.93518C10.2513 4.93518 10.9531 5.63697 10.9531 6.49999C10.9531 7.36301 10.2513 8.06481 9.38831 8.06481C8.5253 8.06481 7.8235 7.36301 7.8235 6.49999C7.8235 5.63697 8.5253 4.93518 9.38831 4.93518Z" fill="#747474"/>
</g>
<defs>
<clipPath id="clip0">
<rect width="18.7778" height="13" fill="white"/>
</clipPath>
</defs>
</svg>
