<svg width="31" height="31" viewBox="0 0 31 31" fill="none" xmlns="http://www.w3.org/2000/svg">
<rect width="31" height="30.2717" rx="10" fill="#669A97"/>
<g clip-path="url(#clip0)">
<path d="M20.3397 17.3519C19.6148 16.7319 18.8791 16.3564 18.1631 16.9754L17.7355 17.3496C17.4227 17.6212 16.8411 18.8903 14.5923 16.3034C12.3441 13.7199 13.682 13.3176 13.9953 13.0483L14.4252 12.6737C15.1374 12.0532 14.8686 11.2721 14.3549 10.468L14.0449 9.98102C13.5289 9.17883 12.9669 8.652 12.2528 9.27156L11.8669 9.60873C11.5513 9.83866 10.669 10.5861 10.455 12.0059C10.1974 13.7096 11.0099 15.6605 12.8714 17.801C14.7305 19.9425 16.5507 21.0182 18.275 20.9995C19.708 20.984 20.5734 20.2151 20.8441 19.9355L21.2313 19.5979C21.9436 18.9788 21.5011 18.3485 20.7757 17.727L20.3397 17.3519Z" fill="white"/>
</g>
<defs>
<clipPath id="clip0">
<rect width="12" height="12" fill="white" transform="translate(10 9)"/>
</clipPath>
</defs>
</svg>
