<svg width="10" height="10" viewBox="0 0 10 10" fill="none" xmlns="http://www.w3.org/2000/svg">
<g clip-path="url(#clip0)">
<path d="M8.61617 6.96006C8.01207 6.44337 7.39899 6.1304 6.80231 6.6463L6.44602 6.95811C6.18534 7.18445 5.70065 8.24201 3.8267 6.0863C1.95314 3.93332 3.06807 3.59811 3.32914 3.37372L3.68738 3.06152C4.28095 2.54445 4.05695 1.89352 3.62885 1.22347L3.37051 0.817618C2.94046 0.14913 2.47216 -0.289894 1.87704 0.226398L1.55548 0.507374C1.29246 0.698984 0.557237 1.32181 0.378896 2.50503C0.164262 3.92474 0.841335 5.5505 2.39255 7.3343C3.94182 9.11889 5.4587 10.0153 6.89558 9.99967C8.08973 9.98679 8.8109 9.34601 9.03646 9.11303L9.35919 8.83167C9.95275 8.31576 9.58397 7.7905 8.97948 7.27264L8.61617 6.96006Z" fill="white"/>
</g>
<defs>
<clipPath id="clip0">
<rect width="10" height="10" fill="white"/>
</clipPath>
</defs>
</svg>
