<svg width="11" height="11" viewBox="0 0 11 11" fill="none" xmlns="http://www.w3.org/2000/svg">
<g clip-path="url(#clip0)">
<path d="M10.3978 4.64127H10.3984H6.35934V0.609814C6.35934 0.278025 6.09069 0.000610352 5.7589 0.000610352H5.24208C4.91038 0.000610352 4.64057 0.278025 4.64057 0.609814V4.64127H0.601602C0.269992 4.64127 0 4.90956 0 5.24144V5.76121C0 6.09282 0.269902 6.35995 0.601602 6.35995H4.64066V10.406C4.64066 10.7376 4.91038 11.0005 5.24217 11.0005H5.75899C6.09078 11.0005 6.35943 10.7375 6.35943 10.406V6.35995H10.3978C10.7296 6.35995 11 6.09273 11 5.76121V5.24144C11 4.90956 10.7296 4.64127 10.3978 4.64127Z" fill="white"/>
</g>
<defs>
<clipPath id="clip0">
<rect width="11" height="11" fill="white"/>
</clipPath>
</defs>
</svg>
