<svg width="14" height="14" viewBox="0 0 14 14" fill="none" xmlns="http://www.w3.org/2000/svg">
<g clip-path="url(#clip0)">
<path d="M13.8752 10.1307C13.8376 10.0677 13.6049 9.56195 12.4848 8.52237C11.3122 7.43379 11.4697 7.61056 12.8821 5.72829C13.7422 4.58196 14.0861 3.8819 13.9785 3.58263C13.8761 3.29736 13.2435 3.37262 13.2435 3.37262L11.1398 3.38487C11.1398 3.38487 10.984 3.36387 10.8676 3.433C10.7548 3.50125 10.6821 3.65876 10.6821 3.65876C10.6821 3.65876 10.3487 4.54608 9.9042 5.30038C8.967 6.89213 8.5916 6.97613 8.43846 6.87725C8.08231 6.64711 8.17157 5.95143 8.17157 5.4579C8.17157 3.91516 8.40521 3.27198 7.71566 3.10572C7.48639 3.05059 7.31838 3.01384 6.73296 3.00771C5.98215 2.99984 5.34598 3.01034 4.98632 3.18623C4.74656 3.30349 4.56192 3.56513 4.6748 3.58001C4.81394 3.59838 5.12896 3.66489 5.2961 3.89241C5.51224 4.18555 5.50436 4.84535 5.50436 4.84535C5.50436 4.84535 5.62862 6.66111 5.21472 6.88688C4.93032 7.04176 4.54092 6.72587 3.70523 5.28113C3.27732 4.5417 2.95355 3.72352 2.95355 3.72352C2.95355 3.72352 2.89142 3.57126 2.78028 3.48988C2.64552 3.39099 2.45651 3.35949 2.45651 3.35949L0.456105 3.37174C0.456105 3.37174 0.155957 3.38049 0.0456988 3.51088C-0.0523086 3.62726 0.0378232 3.86703 0.0378232 3.86703C0.0378232 3.86703 1.60419 7.53092 3.37708 9.37819C5.00383 11.0714 6.85022 10.9603 6.85022 10.9603H7.68678C7.68678 10.9603 7.93967 10.9323 8.06831 10.7932C8.18732 10.6654 8.18294 10.4256 8.18294 10.4256C8.18294 10.4256 8.16632 9.30293 8.68786 9.13754C9.20152 8.97478 9.86132 10.2226 10.5605 10.703C11.089 11.0662 11.4907 10.9866 11.4907 10.9866L13.3607 10.9603C13.3607 10.9603 14.339 10.8999 13.8752 10.1307Z" fill="#9D9D9D"/>
</g>
<defs>
<clipPath id="clip0">
<rect width="14" height="14" fill="white"/>
</clipPath>
</defs>
</svg>
